<mxfile host="app.diagrams.net" modified="2021-07-02T17:02:00.086Z" agent="5.0 (Windows)" etag="ZrzjvM0lbSXgwY-joLGr" version="14.8.3" type="github">
  <diagram id="OUFzhQ-qzbHmUoi5xk4W" name="Page-1">
    <mxGraphModel dx="942" dy="572" grid="1" gridSize="10" guides="1" tooltips="1" connect="1" arrows="1" fold="1" page="1" pageScale="1" pageWidth="827" pageHeight="1169" math="0" shadow="0">
      <root>
        <mxCell id="0" />
        <mxCell id="1" parent="0" />
        <mxCell id="RpJ_1x5NX2suf6x2Oxr0-1" value="Consultar Obras da Biblioteca " style="ellipse;whiteSpace=wrap;html=1;" vertex="1" parent="1">
          <mxGeometry x="440" y="120" width="280" height="120" as="geometry" />
        </mxCell>
        <mxCell id="RpJ_1x5NX2suf6x2Oxr0-2" value="UsÃºario" style="shape=umlActor;verticalLabelPosition=bottom;verticalAlign=top;html=1;outlineConnect=0;" vertex="1" parent="1">
          <mxGeometry x="170" y="120" width="80" height="120" as="geometry" />
        </mxCell>
        <mxCell id="RpJ_1x5NX2suf6x2Oxr0-3" value="" style="endArrow=classic;html=1;entryX=0;entryY=0.5;entryDx=0;entryDy=0;" edge="1" parent="1" source="RpJ_1x5NX2suf6x2Oxr0-2" target="RpJ_1x5NX2suf6x2Oxr0-1">
          <mxGeometry width="50" height="50" relative="1" as="geometry">
            <mxPoint x="390" y="320" as="sourcePoint" />
            <mxPoint x="430" y="180" as="targetPoint" />
          </mxGeometry>
        </mxCell>
      </root>
    </mxGraphModel>
  </diagram>
</mxfile>
